<svg width="47" height="51" viewBox="0 0 47 51" fill="none" xmlns="http://www.w3.org/2000/svg">
<g id="Group 1">
<path id="Vector" d="M15.738 27.2869L13.4833 21.6978L13.5454 12.6502C13.5454 12.6502 19.6185 11.74 22.8081 11.3015C25.9977 10.863 32.3398 8.1905 38.1233 10.7513C44.6929 13.6596 48.1762 20.3905 46.4221 30.6503C44.668 40.91 36.9774 49.213 30.052 50.1066C26.6224 50.5493 26.0102 49.2171 23.3832 49.4075C21.2567 49.5605 21.3726 50.6651 17.7444 50.4789C14.1163 50.2928 11.0383 48.9441 9.22634 46.6936C7.41433 44.443 15.738 27.2869 15.738 27.2869Z" fill="#DC0D28"/>
<path id="Vector_2" d="M5.72647 14.4001C0.526258 18.7439 -1.92698 27.8991 2.22243 37.6707C5.91264 46.3667 11.8079 48.853 11.8079 48.853C11.8079 48.853 22.1173 48.1787 29.3115 44.2982C36.5058 40.4177 43.4518 33.662 43.4518 24.7798C43.4518 15.8977 38.8225 12.8942 38.3219 12.7701C37.8213 12.646 35.757 13.9574 33.4403 14.0195C31.1235 14.0815 29.3115 13.5189 29.3115 13.5189L21.9932 15.9597L15.1506 14.3628C15.1506 14.3628 14.9313 13.4072 15.6718 13.0183C17.2108 12.2157 20.4252 13.581 21.7408 13.5189C23.0564 13.4568 24.1816 11.7028 24.1816 11.7028C24.1816 11.7028 21.1161 11.3883 20.0529 11.1401C18.9897 10.9002 11.7955 9.33225 5.72647 14.4001Z" fill="#FF5117"/>
<path id="Vector_3" d="M22.6054 14.454C20.7106 14.5408 15.6304 12.7578 15.1712 14.152C14.683 15.633 18.4642 17.5981 23.0687 17.2754C27.8718 16.9403 30.8628 14.2843 30.1016 12.8529C29.3446 11.4215 26.2294 14.2843 22.6054 14.454Z" fill="#8D1D0A"/>
<path id="Vector_4" d="M18.0588 6.11367C18.0588 6.11367 17.2604 6.0723 16.8384 5.90268C16.4164 5.73306 15.8207 5.74548 15.8703 5.01736C15.9531 3.79695 17.5169 2.54343 17.8933 2.32004C18.609 1.89806 19.8626 2.0139 20.3383 2.32004C20.9299 2.70064 20.632 4.09067 20.632 4.09067C20.632 4.09067 22.7378 7.25134 23.0315 9.18746C23.3004 10.954 24.4008 16.1087 22.7378 16.4314C21.2195 16.7251 21.8524 12.766 21.0126 10.8299C20.5079 9.67149 19.7922 8.43039 19.1179 7.58644C18.736 7.11691 18.3824 6.62512 18.0588 6.11367Z" fill="#513630"/>
<path id="Vector_5" d="M40.5518 1.18655C40.7214 0.892822 40.3822 0.594957 38.9921 0.553587C37.6021 0.512217 30.019 -0.203484 25.7248 5.14566C22.6386 8.98894 23.1143 12.2654 23.1143 12.2654L25.9357 12.3937L40.5518 1.18655Z" fill="#2F7C31"/>
<path id="Vector_6" d="M31.2393 6.44879C33.7918 4.68643 40.5889 0.84729 40.5889 0.84729C40.5889 0.84729 40.5889 1.81535 40.1669 2.6593C39.7449 3.50325 38.3135 7.67334 32.5011 10.7058C27.0443 13.552 23.4038 12.8529 23.1059 12.3482C22.8163 11.8434 27.0278 9.35711 31.2393 6.44879Z" fill="#709F19"/>
<path id="Vector_7" d="M12.4987 15.633C11.3693 14.0072 8.63469 14.4664 6.18145 17.7387C3.02078 21.9502 3.1904 27.5517 5.3375 27.8909C7.46806 28.226 5.58986 26.0789 8.87464 21.8261C11.3899 18.5703 13.9301 17.6974 12.4987 15.633Z" fill="#FFD2B1"/>
</g>
</svg>
