<svg width="49" height="45" viewBox="0 0 49 45" fill="none" xmlns="http://www.w3.org/2000/svg">
<g id="Group 2">
<path id="Vector" d="M40.6348 8.45813C40.6348 8.45813 40.648 8.6415 40.652 8.97591L40.6536 9.10854C40.6539 9.15546 40.6561 9.20208 40.6512 9.26154C40.641 9.38555 40.6307 9.50956 40.6204 9.63356C40.608 9.76688 40.5965 9.91694 40.5792 10.0669C40.5615 10.2141 40.5446 10.3724 40.5213 10.5379C40.4121 11.3379 40.2458 12.1291 40.0239 12.9054C39.7683 13.8073 39.4088 14.8107 38.9137 15.8676C38.4203 16.9252 37.7839 18.0299 37.0031 19.1349C36.9084 19.2759 36.8044 19.4098 36.702 19.5474L36.5468 19.7539L36.4687 19.8577L36.4491 19.8838C36.5107 19.8271 36.354 19.9758 36.3673 19.9643L36.3592 19.9752L36.3265 20.0186C36.1536 20.2513 35.9712 20.479 35.7908 20.7135L35.7738 20.7354L35.7498 20.7624L35.7014 20.8167L35.6042 20.9254L35.406 21.1412L35.0021 21.5749L34.9001 21.6835L34.8042 21.7817C34.7401 21.8477 34.6753 21.9128 34.6097 21.9772L34.2141 22.3681C33.1438 23.4049 31.9282 24.3705 30.6079 25.228C29.2692 26.0948 27.8504 26.8313 26.3711 27.4272C24.8907 28.0253 23.3571 28.4822 21.7908 28.7919C20.2424 29.0961 18.6922 29.2484 17.1957 29.2561C15.6988 29.2643 14.2571 29.1312 12.9174 28.8923C12.2469 28.7785 11.603 28.6231 10.9873 28.4633C10.3733 28.2885 9.78643 28.1125 9.23535 27.9031L8.8265 27.7538C8.69211 27.7042 8.56154 27.6449 8.43185 27.5918C8.17267 27.484 7.92152 27.3756 7.67879 27.2669C7.43695 27.1547 7.20441 27.0379 6.9798 26.9245L6.64873 26.7568C6.54029 26.7019 6.43636 26.6388 6.33302 26.5816C5.92133 26.3467 5.5403 26.1288 5.20187 25.8979C4.86207 25.671 4.55274 25.4663 4.28562 25.2568L3.90753 24.9633L3.58076 24.6973C3.38142 24.5266 3.21706 24.374 3.08443 24.2509C2.81947 24.0047 2.68557 23.864 2.68557 23.864C1.43932 22.5545 1.49065 20.4827 2.80017 19.2364C3.32513 18.7352 4.00239 18.4236 4.72455 18.351L5.11714 18.3114C5.11714 18.3114 5.2817 18.2947 5.57634 18.2808C5.72356 18.2739 5.90429 18.2646 6.11057 18.2625L6.44704 18.2428L6.82102 18.2285C7.0805 18.226 7.37161 18.2007 7.67801 18.1908C7.98343 18.1845 8.31617 18.1534 8.66047 18.1396C9.00536 18.1243 9.37229 18.0861 9.74755 18.0685C10.1279 18.0275 10.5169 18.0101 10.9218 17.9627L11.2265 17.9324L11.3799 17.9198L11.5352 17.9006L11.8482 17.8623L12.1637 17.8303C12.3762 17.7993 12.5905 17.7691 12.8062 17.7447L12.9684 17.7247L13.1318 17.6977L13.4601 17.6498C14.3393 17.5166 15.245 17.3552 16.1633 17.1581C18.0001 16.7665 19.8873 16.2334 21.7282 15.5506C22.6475 15.2086 23.5543 14.834 24.447 14.4276C25.3375 14.0245 26.2045 13.5883 27.0492 13.1398L27.3617 12.9671C27.4137 12.9382 27.466 12.9099 27.5192 12.8826L27.5985 12.8414L27.6663 12.8048L27.9369 12.6602L28.0734 12.589L28.1429 12.5548L28.1777 12.5378L28.1952 12.5291L28.2184 12.514C28.4665 12.3528 28.7079 12.189 28.9538 12.0352L28.9996 12.0062L29.0111 11.9989C29.031 11.9814 28.8806 12.124 28.9486 12.061L28.967 12.0497L29.0406 12.0044L29.1878 11.9143L29.4805 11.7344C30.2541 11.2521 30.9966 10.7673 31.6841 10.2869C32.3281 9.83799 32.9635 9.37682 33.5899 8.90362C34.1685 8.46959 34.6787 8.06623 35.1106 7.72653C35.2166 7.64062 35.3221 7.56089 35.4195 7.48409C35.5155 7.40926 35.604 7.3453 35.6881 7.28133L35.9223 7.10492C35.9588 7.08092 35.9967 7.04625 36.0321 7.01627L36.1328 6.92998C36.3868 6.71243 36.5333 6.60135 36.5333 6.60135C37.6607 5.74691 39.2672 5.96818 40.1216 7.09552C40.422 7.48989 40.6004 7.96357 40.6348 8.45813Z" fill="#FFAE2C"/>
<path id="Vector_2" d="M3.83046 21.2493C3.42944 22.1649 3.07436 22.2861 2.13245 21.8736C1.19044 21.4611 1.03872 21.118 1.43964 20.2024C1.84055 19.2867 4.23148 20.3336 3.83046 21.2493Z" fill="#B28E7F"/>
<path id="Vector_3" d="M42.7056 9.63461C42.7056 9.63461 42.7495 9.83737 42.8072 10.2105L42.83 10.3585C42.8378 10.4109 42.8477 10.4626 42.8517 10.5298L42.8764 10.9504C42.8838 11.1013 42.8948 11.2708 42.8993 11.4411C42.9029 11.6084 42.9091 11.788 42.9094 11.9766C42.9146 12.8879 42.8546 13.7984 42.73 14.7012C42.5878 15.7497 42.3456 16.928 41.9604 18.1877C41.5772 19.4479 41.0417 20.7836 40.3449 22.1423C40.2615 22.3148 40.1666 22.4811 40.074 22.6511L39.9335 22.9066L39.8627 23.035L39.8449 23.0672C39.9047 22.994 39.7532 23.1851 39.7662 23.1702L39.7589 23.1836L39.7294 23.2373C39.5732 23.5248 39.4055 23.8082 39.2412 24.0989L39.2257 24.1261L39.2032 24.1601L39.1577 24.2283L39.0665 24.3653L38.8793 24.6379L38.497 25.1867L38.4002 25.3242L38.3086 25.4492C38.2478 25.533 38.1855 25.6158 38.1225 25.6985L37.7425 26.1981C36.7114 27.5268 35.5066 28.799 34.1676 29.9671C32.8095 31.1485 31.3412 32.197 29.7829 33.098C28.2238 34.0016 26.5828 34.756 24.8819 35.3511C23.2 35.9372 21.492 36.3539 19.821 36.6003C18.1497 36.8475 16.5175 36.9279 14.9825 36.8739C14.2152 36.8532 13.471 36.7821 12.7576 36.7014C12.0437 36.6036 11.3599 36.5002 10.7109 36.3539L10.2303 36.2521C10.0723 36.2181 9.917 36.1726 9.7636 36.1338C9.4648 36.0567 9.16706 35.9756 8.87047 35.8905C8.5824 35.8036 8.30401 35.7101 8.03494 35.619L7.63833 35.4842C7.50844 35.4401 7.38228 35.3861 7.25769 35.3387C7.01749 35.245 6.77844 35.1484 6.54058 35.0489C6.31049 34.9586 6.09333 34.8523 5.88508 34.7545C5.46927 34.5551 5.09108 34.3754 4.75931 34.1837C4.46405 34.0184 4.17162 33.8481 3.88215 33.6728C3.67153 33.5355 3.46316 33.3948 3.25711 33.2507C2.92192 33.0176 2.74992 32.8818 2.74992 32.8818C1.14918 31.6166 0.877165 29.2934 2.14232 27.6926C2.64923 27.0492 3.35644 26.5933 4.15181 26.3974L4.58417 26.2906C4.58417 26.2906 4.76539 26.2458 5.09245 26.1835C5.25583 26.1525 5.45624 26.1136 5.68702 26.0758C5.91985 26.0287 6.18423 25.9782 6.47495 25.9271C6.7645 25.8831 7.08578 25.8085 7.42656 25.7488C7.76684 25.6932 8.13368 25.6056 8.51628 25.5353C8.89927 25.4634 9.30323 25.3624 9.71972 25.2832C9.93152 25.2307 10.1441 25.1814 10.3574 25.1353C10.5732 25.0899 10.7927 25.0322 11.015 24.9782L11.3507 24.8959L11.5201 24.8575L11.6905 24.8114L12.0341 24.7188L12.3816 24.6329L12.732 24.5308C12.9093 24.4827 13.0866 24.4347 13.2639 24.3868L13.4422 24.3307C13.5613 24.2937 13.6813 24.2603 13.8015 24.2249C14.7626 23.9363 15.7491 23.6119 16.7438 23.2457C18.7341 22.5161 20.758 21.6205 22.7064 20.5647C23.6793 20.0365 24.6331 19.4737 25.5659 18.8776C26.4968 18.2857 27.3964 17.6604 28.2689 17.0249L28.5907 16.7822C28.6442 16.7415 28.6983 16.7017 28.7531 16.6628L28.8352 16.6041L28.9052 16.5524L29.1846 16.3478L29.3258 16.2465L29.3981 16.1972L29.4343 16.1726L29.4525 16.1602L29.476 16.1395C29.7277 15.92 29.9714 15.6986 30.2216 15.4876L30.2682 15.4478L30.2798 15.4379C30.2993 15.4152 30.154 15.5983 30.2198 15.5172L30.2386 15.5017L30.3137 15.4395L30.4638 15.3154L30.7622 15.0679C31.55 14.406 32.3026 13.7463 32.9945 13.1002C33.6427 12.4962 34.2793 11.8799 34.9041 11.2516C35.4816 10.6746 35.9876 10.1429 36.4162 9.69455C36.521 9.58171 36.6262 9.47583 36.7229 9.37454C36.8183 9.27561 36.907 9.1902 36.9907 9.10527L37.2244 8.87087C37.2613 8.83825 37.2982 8.79349 37.3329 8.75431L37.4317 8.64186C37.681 8.35838 37.8271 8.21097 37.8271 8.21097C38.9509 7.07697 40.7812 7.06884 41.9152 8.19265C42.3136 8.586 42.5883 9.0872 42.7056 9.63461Z" fill="#FFB93E"/>
<path id="Vector_4" d="M3.61368 29.7783C3.3112 30.8652 0.473226 30.0754 0.775703 28.9885C1.07818 27.9016 1.45569 27.7098 2.57391 28.021C3.69214 28.3321 3.91616 28.6913 3.61368 29.7783Z" fill="#A07562"/>
<path id="Vector_5" d="M41.0838 0.649141C40.9705 0.618043 40.852 0.610443 40.7356 0.626808C40.6147 0.52322 40.4793 0.438001 40.3336 0.373895C39.7482 0.117553 39.1119 0.683522 38.7881 1.03831C37.8027 2.11764 40.0202 3.53345 38.4445 6.14055C38.2224 6.50787 38.4118 7.45399 38.7507 7.60239C39.133 7.76979 39.5835 7.64784 39.9183 7.32323C39.9087 7.34654 39.8997 7.36956 39.8897 7.39307C39.6999 7.83885 40.062 8.86588 40.4643 8.97784C41.0617 9.14406 41.7122 8.73217 41.9763 8.02731C42.719 6.04505 43.5124 1.32501 41.0838 0.649141Z" fill="#8E6049"/>
<path id="Vector_6" d="M46.2242 8.19366C46.2242 8.19366 46.3251 8.36792 46.4916 8.69655L46.5576 8.82692C46.5807 8.87335 46.6053 8.91733 46.6303 8.98188L46.7852 9.38035C46.8395 9.52356 46.9029 9.6841 46.9606 9.84592C47.0162 10.0046 47.0779 10.1739 47.1376 10.3539C47.4285 11.2227 47.6602 12.1101 47.8312 13.0102C48.0322 14.0554 48.1838 15.256 48.2311 16.5801C48.2805 17.9041 48.2148 19.3493 48.0094 20.8698C47.9879 21.061 47.954 21.2504 47.9233 21.4425L47.876 21.7315L47.852 21.8768L47.846 21.9133C47.8765 21.8186 47.8009 22.0629 47.8079 22.043L47.8053 22.0579L47.7952 22.118C47.7427 22.4391 47.6791 22.7607 47.6206 23.0876L47.615 23.1183L47.6052 23.1582L47.5854 23.2385L47.5454 23.3994C47.5174 23.5069 47.4892 23.6143 47.4611 23.7218L47.2866 24.3721L47.2419 24.5352L47.1977 24.6842C47.1684 24.7841 47.138 24.8837 47.1065 24.9829L46.9178 25.5836C46.3921 27.1861 45.6972 28.7983 44.8417 30.3586C43.9733 31.9363 42.9595 33.4295 41.8135 34.8187C40.6645 36.217 39.3812 37.5034 38.0178 38.6441C36.6546 39.7854 35.211 40.781 33.7425 41.6064C32.2743 42.4329 30.7856 43.0933 29.3405 43.5974C28.6205 43.8552 27.9039 44.0585 27.213 44.2431C26.5153 44.4116 25.8439 44.5651 25.1893 44.6669L24.707 44.7484C24.5482 44.7749 24.3878 44.7897 24.2316 44.8101C23.9185 44.8492 23.6131 44.8836 23.3158 44.9132C23.0174 44.9386 22.7256 44.9549 22.4434 44.9702L22.0271 44.9922C21.8907 44.9996 21.7543 44.9964 21.6217 44.9988C21.0895 45.001 20.5966 45.0037 20.138 44.9701C19.6803 44.9412 19.2646 44.9176 18.8875 44.8656L18.3553 44.7956L17.8885 44.7242C17.5989 44.6723 17.3537 44.6189 17.1558 44.5758C16.7601 44.4895 16.5511 44.4315 16.5511 44.4315C14.6057 43.8919 13.4661 41.8773 14.0058 39.932C14.2399 39.0833 14.7735 38.3481 15.5079 37.8626L15.8687 37.6241C15.8687 37.6241 16.0219 37.5229 16.3053 37.3554C16.4469 37.2717 16.6204 37.1683 16.8232 37.0575L17.145 36.8612L17.5072 36.6495C17.7626 36.5097 18.0368 36.3301 18.3349 36.1569C18.634 35.9879 18.9465 35.779 19.2803 35.5802C19.6138 35.3797 19.9566 35.1441 20.3191 34.9232C20.6737 34.6766 21.0498 34.4477 21.4251 34.1793L21.7105 33.9828L21.8556 33.8862L21.9988 33.782L22.2878 33.5723L22.5827 33.3666L22.8745 33.145L23.1716 32.927L23.3211 32.8174L23.468 32.7003L23.7662 32.4705C24.562 31.8502 25.3666 31.1832 26.1602 30.4707C26.9537 29.7583 27.7397 29.0048 28.4981 28.2097C29.2569 27.4152 29.9875 26.5793 30.6848 25.7182C32.0755 23.9923 33.3225 22.1562 34.3927 20.3185L34.5886 19.9729C34.621 19.9154 34.654 19.8581 34.6885 19.8016L34.7395 19.7165L34.7816 19.6427L34.9502 19.3508L35.0362 19.2057L35.0811 19.1337L35.1036 19.0977L35.1149 19.0796L35.1282 19.0515C35.272 18.752 35.4086 18.4541 35.5539 18.163L35.5809 18.1083L35.5876 18.0947C35.5977 18.0652 35.525 18.2999 35.5582 18.1956L35.5689 18.1742L35.6117 18.0889L35.6974 17.9188L35.8675 17.5802C36.3123 16.679 36.7228 15.7974 37.0822 14.9549C37.418 14.1701 37.7382 13.3787 38.0427 12.5812C38.3246 11.8506 38.5596 11.1899 38.759 10.6339C38.8066 10.4951 38.857 10.3624 38.9019 10.2371C38.9465 10.115 38.9899 10.0098 39.0297 9.90557L39.1416 9.61789C39.161 9.57743 39.1758 9.5217 39.1907 9.47302L39.233 9.33314C39.3398 8.98051 39.4088 8.79137 39.4088 8.79137C40.1245 6.83212 42.2929 5.82409 44.2521 6.53973C45.1154 6.85485 45.7963 7.45637 46.2242 8.19366Z" fill="#FFCE6C"/>
<path id="Vector_7" d="M45.5539 17.7073C45.5539 17.7073 45.6147 17.9897 45.6763 18.4782C45.6843 18.5393 45.693 18.6037 45.6999 18.671L45.7112 18.7743L45.7166 18.8897C45.7247 19.0474 45.7257 19.218 45.7303 19.4021C45.7326 19.585 45.7333 19.7844 45.7282 19.9883L45.6865 20.619C45.6584 21.0613 45.582 21.5311 45.4961 22.0311C45.4771 22.1569 45.4472 22.2809 45.4183 22.4071L45.3271 22.7898C45.2632 23.0474 45.2012 23.313 45.1128 23.5733C45.0288 23.8404 44.9414 24.1064 44.8507 24.3712C44.7504 24.636 44.641 24.901 44.5315 25.1688C44.4738 25.3012 44.4231 25.438 44.3583 25.568L44.1675 25.9612L43.972 26.3542C43.9084 26.4864 43.8366 26.6139 43.763 26.7404C43.6184 26.9945 43.4714 27.2472 43.3221 27.4985C43.1651 27.7417 43.005 27.9829 42.8416 28.2218C42.6846 28.4627 42.5101 28.6882 42.3383 28.9107C42.1643 29.1316 41.9994 29.3549 41.8189 29.5596C41.4589 29.9699 41.1105 30.364 40.7464 30.7058L40.481 30.9612C40.3931 31.0441 40.3089 31.1278 40.2186 31.2033C40.0389 31.3548 39.8702 31.5044 39.7005 31.6403C39.3703 31.9206 39.0433 32.1502 38.754 32.3512C38.6083 32.4507 38.4742 32.5453 38.3457 32.6273C38.2261 32.7007 38.1054 32.7722 37.9837 32.8421C37.8138 32.9411 37.6416 33.036 37.4672 33.1267C37.3461 33.1894 37.2801 33.2206 37.2801 33.2206C37.1289 33.2922 36.959 33.3142 36.7946 33.2835C36.6302 33.2528 36.4796 33.1709 36.3645 33.0496C36.2494 32.9282 36.1755 32.7737 36.1534 32.6079C36.1314 32.4421 36.1622 32.2735 36.2416 32.1263L36.2553 32.1013L36.3517 31.925C36.4158 31.8118 36.5104 31.647 36.6362 31.4459C36.6979 31.3441 36.7689 31.2346 36.8457 31.1157C36.9176 30.992 36.999 30.8626 37.0845 30.7236C37.256 30.4464 37.459 30.146 37.6629 29.8071C37.7649 29.6377 37.8794 29.4697 37.9929 29.2921C38.1036 29.1123 38.215 28.9254 38.3339 28.7377C38.5773 28.366 38.8094 27.9604 39.065 27.5554C39.1311 27.4556 39.1902 27.3502 39.2508 27.2448L39.4372 26.9294L39.629 26.6131C39.6941 26.5077 39.7511 26.397 39.814 26.2893C39.9355 26.0714 40.0648 25.8563 40.1904 25.6383C40.3092 25.416 40.4303 25.1951 40.5539 24.9756C40.6821 24.758 40.7893 24.5306 40.9086 24.3099C41.0254 24.0882 41.1493 23.8705 41.2542 23.6467C41.3642 23.4271 41.4762 23.2084 41.5901 22.9908C41.691 22.7733 41.795 22.5572 41.9021 22.3426C42.012 22.1317 42.1029 21.9185 42.1997 21.7114L42.3449 21.4043C42.3947 21.3053 42.4412 21.2048 42.4843 21.1028C42.569 20.9073 42.6561 20.7128 42.7456 20.5195C42.8399 20.3326 42.9102 20.1464 42.9864 19.9687L43.2132 19.4576C43.2855 19.2973 43.3415 19.1473 43.4054 19.004C43.4694 18.8615 43.5259 18.7262 43.5853 18.6012L43.6282 18.5089L43.6651 18.4117C43.6886 18.3483 43.7133 18.2882 43.7364 18.2311C43.9187 17.7736 44.0485 17.5155 44.0485 17.5155C44.1443 17.3249 44.312 17.1801 44.5146 17.1131C44.7171 17.0461 44.9381 17.0623 45.1287 17.1581C45.3538 17.271 45.5035 17.4793 45.5539 17.7073Z" fill="#FFDF95"/>
<path id="Vector_8" d="M16.2294 41.2262C16.3419 42.3489 16.0597 42.6646 14.9048 42.7804C13.75 42.8961 13.4108 42.6427 13.2982 41.5201C13.1857 40.3975 13.4679 40.0818 14.6227 39.966C15.7776 39.8502 16.1168 40.1036 16.2294 41.2262Z" fill="#8E6049"/>
<path id="Vector_9" d="M43.0209 8.47196C43.6379 8.41015 44.0946 7.79031 44.0849 7.03755C44.0578 4.92089 45.6857 1.6341 43.4414 0.486096C40.7844 -0.872993 38.6956 0.994078 38.5734 1.52224C38.2018 3.12934 41.0368 3.38862 41.931 7.88434C42.0257 8.35941 42.6053 8.51359 43.0209 8.47196Z" fill="#966C5A"/>
<path id="Vector_10" d="M42.7055 3.67949C41.9915 4.83738 42.7063 8.50355 43.0209 8.47201C43.6379 8.4101 45.2815 -0.497986 42.7055 3.67949Z" fill="#1AC84B"/>
</g>
</svg>
